<svg width="65" height="16" viewBox="0 0 65 16" fill="none" xmlns="http://www.w3.org/2000/svg">
<path d="M0.00195312 0H2.35547V12.7441L2.13086 15H0.00195312V0ZM9.25 9.61914V9.82422C9.25 10.6055 9.16211 11.3249 8.98633 11.9824C8.81706 12.6335 8.55664 13.1999 8.20508 13.6816C7.86003 14.1634 7.43034 14.5378 6.91602 14.8047C6.4082 15.0651 5.81901 15.1953 5.14844 15.1953C4.49089 15.1953 3.91797 15.0716 3.42969 14.8242C2.94141 14.5768 2.53125 14.2253 2.19922 13.7695C1.8737 13.3138 1.61003 12.7702 1.4082 12.1387C1.20638 11.5072 1.06315 10.8105 0.978516 10.0488V9.39453C1.06315 8.6263 1.20638 7.92969 1.4082 7.30469C1.61003 6.67318 1.8737 6.12956 2.19922 5.67383C2.53125 5.21159 2.93815 4.85677 3.41992 4.60938C3.9082 4.36198 4.47786 4.23828 5.12891 4.23828C5.80599 4.23828 6.40169 4.36849 6.91602 4.62891C7.43685 4.88932 7.86979 5.26042 8.21484 5.74219C8.5599 6.21745 8.81706 6.78385 8.98633 7.44141C9.16211 8.09896 9.25 8.82487 9.25 9.61914ZM6.89648 9.82422V9.61914C6.89648 9.14388 6.85742 8.69792 6.7793 8.28125C6.70117 7.85807 6.57096 7.48698 6.38867 7.16797C6.21289 6.84896 5.97201 6.59831 5.66602 6.41602C5.36654 6.22721 4.99219 6.13281 4.54297 6.13281C4.1263 6.13281 3.76823 6.20443 3.46875 6.34766C3.16927 6.49089 2.91862 6.6862 2.7168 6.93359C2.51497 7.18099 2.35547 7.46745 2.23828 7.79297C2.1276 8.11849 2.05273 8.47005 2.01367 8.84766V10.6152C2.07227 11.1035 2.19596 11.5527 2.38477 11.9629C2.58008 12.3665 2.85352 12.6921 3.20508 12.9395C3.55664 13.1803 4.00911 13.3008 4.5625 13.3008C4.9987 13.3008 5.36654 13.2129 5.66602 13.0371C5.96549 12.8613 6.20312 12.6172 6.37891 12.3047C6.5612 11.9857 6.69141 11.6146 6.76953 11.1914C6.85417 10.7682 6.89648 10.3125 6.89648 9.82422ZM13.6055 6.44531V15H11.252V4.43359H13.498L13.6055 6.44531ZM16.8379 4.36523L16.8184 6.55273C16.6751 6.52669 16.5189 6.50716 16.3496 6.49414C16.1868 6.48112 16.0241 6.47461 15.8613 6.47461C15.4577 6.47461 15.1029 6.5332 14.7969 6.65039C14.4909 6.76107 14.2337 6.92383 14.0254 7.13867C13.8236 7.34701 13.6673 7.60091 13.5566 7.90039C13.446 8.19987 13.3809 8.53516 13.3613 8.90625L12.8242 8.94531C12.8242 8.28125 12.8893 7.66602 13.0195 7.09961C13.1497 6.5332 13.3451 6.03516 13.6055 5.60547C13.8724 5.17578 14.2044 4.84049 14.6016 4.59961C15.0052 4.35872 15.4707 4.23828 15.998 4.23828C16.1413 4.23828 16.2943 4.2513 16.457 4.27734C16.6263 4.30339 16.7533 4.33268 16.8379 4.36523ZM22.7949 15.1953C22.0137 15.1953 21.3073 15.0684 20.6758 14.8145C20.0508 14.554 19.5169 14.1927 19.0742 13.7305C18.638 13.2682 18.3027 12.7246 18.0684 12.0996C17.834 11.4746 17.7168 10.8008 17.7168 10.0781V9.6875C17.7168 8.86068 17.8372 8.11198 18.0781 7.44141C18.319 6.77083 18.6543 6.19792 19.084 5.72266C19.5137 5.24089 20.0215 4.87305 20.6074 4.61914C21.1934 4.36523 21.8281 4.23828 22.5117 4.23828C23.2669 4.23828 23.9277 4.36523 24.4941 4.61914C25.0605 4.87305 25.5293 5.23112 25.9004 5.69336C26.278 6.14909 26.5579 6.69271 26.7402 7.32422C26.929 7.95573 27.0234 8.65234 27.0234 9.41406V10.4199H18.8594V8.73047H24.6992V8.54492C24.6862 8.12174 24.6016 7.72461 24.4453 7.35352C24.2956 6.98242 24.0645 6.68294 23.752 6.45508C23.4395 6.22721 23.0228 6.11328 22.502 6.11328C22.1113 6.11328 21.763 6.19792 21.457 6.36719C21.1576 6.52995 20.9069 6.76758 20.7051 7.08008C20.5033 7.39258 20.347 7.77018 20.2363 8.21289C20.1322 8.64909 20.0801 9.14062 20.0801 9.6875V10.0781C20.0801 10.5404 20.1419 10.9701 20.2656 11.3672C20.3958 11.7578 20.5846 12.0996 20.832 12.3926C21.0794 12.6855 21.3789 12.9167 21.7305 13.0859C22.082 13.2487 22.4824 13.3301 22.9316 13.3301C23.498 13.3301 24.0026 13.2161 24.4453 12.9883C24.888 12.7604 25.2721 12.4382 25.5977 12.0215L26.8379 13.2227C26.61 13.5547 26.3138 13.8737 25.9492 14.1797C25.5846 14.4792 25.1387 14.7233 24.6113 14.9121C24.0905 15.1009 23.485 15.1953 22.7949 15.1953ZM34.8164 12.8809V7.8418C34.8164 7.46419 34.748 7.13867 34.6113 6.86523C34.4746 6.5918 34.2663 6.38021 33.9863 6.23047C33.7129 6.08073 33.3678 6.00586 32.9512 6.00586C32.5671 6.00586 32.235 6.07096 31.9551 6.20117C31.6751 6.33138 31.457 6.50716 31.3008 6.72852C31.1445 6.94987 31.0664 7.20052 31.0664 7.48047H28.7227C28.7227 7.0638 28.8236 6.66016 29.0254 6.26953C29.2272 5.87891 29.5202 5.5306 29.9043 5.22461C30.2884 4.91862 30.7474 4.67773 31.2812 4.50195C31.8151 4.32617 32.4141 4.23828 33.0781 4.23828C33.8724 4.23828 34.5755 4.37174 35.1875 4.63867C35.806 4.9056 36.291 5.30924 36.6426 5.84961C37.0007 6.38346 37.1797 7.05404 37.1797 7.86133V12.5586C37.1797 13.0404 37.2122 13.4733 37.2773 13.8574C37.349 14.235 37.4499 14.5638 37.5801 14.8438V15H35.168C35.0573 14.7461 34.9694 14.4238 34.9043 14.0332C34.8457 13.6361 34.8164 13.252 34.8164 12.8809ZM35.1582 8.57422L35.1777 10.0293H33.4883C33.0521 10.0293 32.668 10.0716 32.3359 10.1562C32.0039 10.2344 31.7272 10.3516 31.5059 10.5078C31.2845 10.6641 31.1185 10.8529 31.0078 11.0742C30.8971 11.2956 30.8418 11.5462 30.8418 11.8262C30.8418 12.1061 30.9069 12.3633 31.0371 12.5977C31.1673 12.8255 31.3561 13.0046 31.6035 13.1348C31.8574 13.265 32.1634 13.3301 32.5215 13.3301C33.0033 13.3301 33.4232 13.2324 33.7812 13.0371C34.1458 12.8353 34.4323 12.5911 34.6406 12.3047C34.849 12.0117 34.9596 11.735 34.9727 11.4746L35.7344 12.5195C35.6562 12.7865 35.5228 13.0729 35.334 13.3789C35.1452 13.6849 34.8978 13.9779 34.5918 14.2578C34.2923 14.5312 33.931 14.7559 33.5078 14.9316C33.0911 15.1074 32.6094 15.1953 32.0625 15.1953C31.3724 15.1953 30.7572 15.0586 30.2168 14.7852C29.6764 14.5052 29.2533 14.1309 28.9473 13.6621C28.6413 13.1868 28.4883 12.6497 28.4883 12.0508C28.4883 11.4909 28.5924 10.9961 28.8008 10.5664C29.0156 10.1302 29.3281 9.76562 29.7383 9.47266C30.1549 9.17969 30.6628 8.95833 31.2617 8.80859C31.8607 8.65234 32.5443 8.57422 33.3125 8.57422H35.1582ZM42.0137 0V15H39.6504V0H42.0137ZM48.5762 4.43359L43.9766 9.53125L41.457 12.1094L40.8418 10.1172L42.7461 7.76367L45.7344 4.43359H48.5762ZM46.2422 15L42.8145 10.0391L44.2988 8.38867L48.9668 15H46.2422Z" fill="#0F172A"/>
<path d="M52.5898 4.43359V15H50.2266V4.43359H52.5898ZM50.0703 1.66016C50.0703 1.30208 50.1875 1.00586 50.4219 0.771484C50.6628 0.530599 50.9948 0.410156 51.418 0.410156C51.8346 0.410156 52.1634 0.530599 52.4043 0.771484C52.6452 1.00586 52.7656 1.30208 52.7656 1.66016C52.7656 2.01172 52.6452 2.30469 52.4043 2.53906C52.1634 2.77344 51.8346 2.89062 51.418 2.89062C50.9948 2.89062 50.6628 2.77344 50.4219 2.53906C50.1875 2.30469 50.0703 2.01172 50.0703 1.66016ZM54.7188 9.83398V9.60938C54.7188 8.84766 54.8294 8.14128 55.0508 7.49023C55.2721 6.83268 55.5911 6.26302 56.0078 5.78125C56.431 5.29297 56.9453 4.91536 57.5508 4.64844C58.1628 4.375 58.8529 4.23828 59.6211 4.23828C60.3958 4.23828 61.0859 4.375 61.6914 4.64844C62.3034 4.91536 62.821 5.29297 63.2441 5.78125C63.6673 6.26302 63.9896 6.83268 64.2109 7.49023C64.4323 8.14128 64.543 8.84766 64.543 9.60938V9.83398C64.543 10.5957 64.4323 11.3021 64.2109 11.9531C63.9896 12.6042 63.6673 13.1738 63.2441 13.6621C62.821 14.1439 62.3066 14.5215 61.7012 14.7949C61.0957 15.0618 60.4089 15.1953 59.6406 15.1953C58.8659 15.1953 58.1725 15.0618 57.5605 14.7949C56.9551 14.5215 56.4408 14.1439 56.0176 13.6621C55.5944 13.1738 55.2721 12.6042 55.0508 11.9531C54.8294 11.3021 54.7188 10.5957 54.7188 9.83398ZM57.0723 9.60938V9.83398C57.0723 10.3092 57.1211 10.7585 57.2188 11.1816C57.3164 11.6048 57.4694 11.9759 57.6777 12.2949C57.8861 12.6139 58.153 12.8646 58.4785 13.0469C58.804 13.2292 59.1914 13.3203 59.6406 13.3203C60.0768 13.3203 60.4544 13.2292 60.7734 13.0469C61.099 12.8646 61.3659 12.6139 61.5742 12.2949C61.7826 11.9759 61.9355 11.6048 62.0332 11.1816C62.1374 10.7585 62.1895 10.3092 62.1895 9.83398V9.60938C62.1895 9.14062 62.1374 8.69792 62.0332 8.28125C61.9355 7.85807 61.7793 7.48372 61.5645 7.1582C61.3561 6.83268 61.0892 6.57878 60.7637 6.39648C60.4447 6.20768 60.0638 6.11328 59.6211 6.11328C59.1784 6.11328 58.7943 6.20768 58.4688 6.39648C58.1497 6.57878 57.8861 6.83268 57.6777 7.1582C57.4694 7.48372 57.3164 7.85807 57.2188 8.28125C57.1211 8.69792 57.0723 9.14062 57.0723 9.60938Z" fill="#86198F"/>
</svg>
