<svg width="64" height="64" viewBox="0 0 64 64" fill="none" xmlns="http://www.w3.org/2000/svg">
<g clip-path="url(#clip0_5107_1187)">
<path d="M40 29.3333V29.3599" stroke="#A21CAF" stroke-width="4" stroke-linecap="round" stroke-linejoin="round"/>
<path d="M42.6653 8V18.1413C45.9656 20.051 48.4783 23.0732 49.7533 26.6667H53.3293C54.0366 26.6667 54.7149 26.9476 55.215 27.4477C55.715 27.9478 55.996 28.6261 55.996 29.3333V34.6667C55.996 35.3739 55.715 36.0522 55.215 36.5523C54.7149 37.0524 54.0366 37.3333 53.3293 37.3333H49.7507C48.8535 39.8677 47.3331 42.1356 45.3293 43.928V49.3333C45.3293 50.3942 44.9079 51.4116 44.1578 52.1618C43.4076 52.9119 42.3902 53.3333 41.3293 53.3333C40.2685 53.3333 39.2511 52.9119 38.5009 52.1618C37.7508 51.4116 37.3293 50.3942 37.3293 49.3333V47.7787C36.4481 47.9263 35.5562 48.0003 34.6627 48H23.996C23.1025 48.0003 22.2106 47.9263 21.3293 47.7787V49.3333C21.3293 50.3942 20.9079 51.4116 20.1578 52.1618C19.4076 52.9119 18.3902 53.3333 17.3293 53.3333C16.2685 53.3333 15.2511 52.9119 14.5009 52.1618C13.7508 51.4116 13.3293 50.3942 13.3293 49.3333V44L13.332 43.928C10.9161 41.7681 9.21298 38.9254 8.44812 35.7763C7.68326 32.6271 7.89269 29.32 9.04871 26.2925C10.2047 23.265 12.2528 20.6599 14.9219 18.822C17.591 16.9841 20.7553 16 23.996 16H30.6627L42.6627 8H42.6653Z" stroke="#A21CAF" stroke-width="4" stroke-linecap="round" stroke-linejoin="round"/>
</g>
<defs>
<clipPath id="clip0_5107_1187">
<rect width="64" height="64" fill="white"/>
</clipPath>
</defs>
</svg>
