<svg width="64" height="64" viewBox="0 0 64 64" fill="none" xmlns="http://www.w3.org/2000/svg">
<g clip-path="url(#clip0_5107_1104)">
<path d="M8 18.6667H16" stroke="#A21CAF" stroke-width="4" stroke-linecap="round" stroke-linejoin="round"/>
<path d="M8 29.3333H13.3333" stroke="#A21CAF" stroke-width="4" stroke-linecap="round" stroke-linejoin="round"/>
<path d="M24.0522 23.4694L22.4522 39.4694C22.3781 40.2108 22.4601 40.9596 22.6931 41.6673C22.926 42.3751 23.3047 43.0262 23.8046 43.5787C24.3046 44.1312 24.9148 44.5728 25.5959 44.875C26.2769 45.1772 27.0138 45.3334 27.7589 45.3334H49.0389C50.3615 45.3334 51.6369 44.8419 52.6175 43.9544C53.5981 43.0669 54.214 41.8468 54.3456 40.5307L55.9456 24.5307C56.0197 23.7893 55.9377 23.0406 55.7047 22.3328C55.4718 21.625 55.0932 20.9739 54.5932 20.4215C54.0932 19.869 53.483 19.4274 52.802 19.1252C52.1209 18.8229 51.384 18.6668 50.6389 18.6667H29.3589C28.0363 18.6668 26.7609 19.1583 25.7803 20.0457C24.7997 20.9332 24.1838 22.1534 24.0522 23.4694Z" stroke="#A21CAF" stroke-width="4" stroke-linecap="round" stroke-linejoin="round"/>
<path d="M26.1328 20L34.0848 28.7467C34.7915 29.5241 35.6444 30.1548 36.5948 30.6026C37.5452 31.0505 38.5745 31.3067 39.6239 31.3567C40.6733 31.4067 41.7224 31.2496 42.7111 30.8941C43.6997 30.5387 44.6087 29.9921 45.3861 29.2853L54.1328 21.3333" stroke="#A21CAF" stroke-width="4" stroke-linecap="round" stroke-linejoin="round"/>
</g>
<defs>
<clipPath id="clip0_5107_1104">
<rect width="64" height="64" fill="white"/>
</clipPath>
</defs>
</svg>
